<?xml version="1.0" encoding="UTF-8"?>
<svg id="Layer_1" data-name="Layer 1" xmlns="http://www.w3.org/2000/svg" viewBox="0 0 415.62 315.57">
  <defs>
    <style>
      .cls-1 {
        fill: #d0ac5e;
      }

      .cls-2 {
        fill: #9f248f;
      }

      .cls-3 {
        fill: #231f20;
      }

      .cls-4 {
        fill: #0f8598;
      }

      .cls-5, .cls-6 {
        fill: #fff;
      }

      .cls-6 {
        font-family: MyriadPro-Regular, 'Myriad Pro';
        font-size: 24px;
      }
    </style>
  </defs>
  <path class="cls-2" d="M74.94,163.94h0c.56,0,.56-.56,1.12-.28h0c0,.28,0,.56.28.56.84,0,1.4.28,1.68.84h.28c.28.28.84.28,1.12.84.28-.28,0-.84.56-.84.84,0,1.4-.56,2.24-.56,0,0,0,.28.28.28.56,0,1.12.28,1.4.84,0,.28.56.56.56.28,0-.84.56-.28,1.12-.56.28.28.28.56.56.84.28-.28-.28-.84.28-.56h0c.28.56,1.12.28,1.4.84h0c.28-.28,1.12.28.84-.56.56,0,0,.84.84,1.12,0-.84.56-.56.84-.28.28.28.28.56.56.28.28-.28,0-.56-.28-.84-.56-.56-.84-.84-1.68-.84.28-.28.56-.56,1.12-.56,1.12-.28,2.24.56,3.35.84l.28.28c0,.28,0,.56-.28.56s-.28,0-.56.28c-.28,0-.56.28-.28.56,0,.28.28.28.56.28.84,0,1.96-.28,2.52.84.28.28.84,1.12,1.4.28,0,0,.28,0,.56.28-.28,0-.56.28-.56.56s0,.56-.28.28c-.56-.28-.84,0-.84.56,0,.28-.28.28-.56.28-.28-.28-.28.28-.28.28.28.28.56.56.84.56.56-.28.56,0,.84.28h.56c.56,0,.84.28,1.12.56.56.84,1.4.84,2.24.84s1.68-.28,2.24-.84c.28,0,.56,0,.56-.56s-.56-.28-.84-.56h-.28c-.56.56-1.4-.56-1.96.28,0,0-.28,0-.28-.28-.28,0-.28-.28-.56-.28-.28-.28-.84-.28-.84-.56s.56,0,1.12,0c.84.28,1.4,0,2.52-.56.28-.28.28,0,.56.28s.56.56.84.28c.28-.28.56-.28.84.28.28.56.56.84,1.12.28h.28c.56.28.28.84.28.84,0,.56-.56,0-.84,0-.28.84.28.84.84.84.84-.28,1.68.28,1.96,1.12q0,.28.28.28c1.12-.56,2.52-.56,3.63-.56.28,0,.56,0,.56-.28.28-.56.56-.28.84,0,.84.56,1.96.28,2.52,1.4,0,0,.28.28.28,0,.56-.56,1.12.28,1.68,0,.28.28.56.56.56.84,0,.56.56.56.84.56s.56.28.56-.28c0-.28-.28-.56-.28-.84-.28-.56-.56-.84-.28-1.4.28-.56.28-.84-.56-1.12-.28,0-.84-.28-1.12-.28h0c-.28-.56-.84-.84-1.4-.56h-.84c-.28-.28-.84-.28-.56-.84.84.28,1.12.28,2.23-.28h.56c.56.28,1.4,0,1.96-.28.28-.28.84.28.84-.28,0-.28,0-.84.56-.28.28.28.84-.28.84.56,0,.28.28.28.56.28s.28-.28.28-.56c0-.56.28-1.12.84-.84.84.28,1.96.56,2.52,1.4,0,.28,0,.56-.28.84h0c-.84-.56-1.68-.56-2.8-.56.28.28,1.12.56.84.84-.28.56,0,1.4-.84,1.96-.28.28-1.12.28-1.12.84v1.12q0,.28.28.56h.56c0-.84.84-.84,1.12-1.12.28-.28.56-.56,0-.84-.28-.28-.28-.56,0-.56.56,0,.28-.56.56-.56.28-.28,0-.84.84-.56,0,.56.56.56.84.56,1.4,0,1.68.28,1.68,1.68v.28c0,.84,1.12,1.68,1.96.84.84-.56.84,0,1.4.28.28.28.28.56.56.28.28-.28,0-.28,0-.56s3.35,0,3.35,0c0,0,.28,0,.28.28s.28.28.28.28c.84-.28,1.4.56,2.24.28.56.28.84,0,1.12-.56q.28-.56.84-.56c.56,0,1.12.28,1.96.28q.28,0,.28.28c.28.56.56.56.84,0,.28-.28.28-.84,1.12-.56,0,0,.28,0,.56-.28.28-.28.84-.56,1.12,0,.28.28.28.84,0,1.12q-.28.56.28,1.4c.28-.28.56-.56.84-.56s.56-.28.28-.28c-.28-.84.28-.84.84-.84.84,0,.56-.28.56-.84-.28-.56,0-.56.28-.84h0c.28,0,.56.28.56-.28,0-.28.56-.84.28-1.12-.28-.28-.56-.84-1.12-.28-.28-.84,0-1.68.56-2.52-.56,0-1.12-.28-1.68-.56h0c.28,0,.56.28.84,0,.28-.28-.56-.28-.56-.56.56,0,.56-.56.84-1.12.28,0,.84-.28,1.12.28.56.84,1.12.84,1.68.56.56-.28,1.4,0,2.24,0,.28.28,0,.84.28,1.12-.56.28,0,.84-.84,1.12-.28-.56-1.12-.56-1.12-.28-.28.56-.84,1.12-.56,1.68.28.56,0,.56-.28.56-.56.28-.28.84-.56,1.12.84.28.28.56.28,1.12s.28.84.28,1.12c-.28.56.28.56.56.56.84-.28,1.4,0,1.96.84.28.28.28.56.56.56s.84,0,.84-.56c0-.28.28-.28.28-.28.56.56.56-.28.84-.56,0-.28.28-.28.56-.28s.28.28.28.28q0,.28.28.28c.56,0,1.12.56,1.4-.56l.28-.28c.28,0,.56.28,1.12,0,.56-.28,1.12.28,1.12.56-.28.84.28.84.84.84q-.28-.28,0-.56c.28-.28.56-1.4.56-1.68s.84-.84-.28-1.12c-.28,0-.28-.28,0-.28s.56-.28,1.12-.28v-.28c0-.56,0-.84.56-.84v-.28q0-.28.28-.56c.56-.28.28-.56,0-.84,0,0-.28,0-.28-.28.28-.56,0-1.12.28-1.4h.28c.56.28.56.84,1.12.56-.28-.28-.56-.56,0-.84.56-.28-.28-.84,0-1.12.28,0,.28-.28.56-.28s.28-.28.28-.56c-.28-.84.28-1.4.28-2.24.28-.56,0-1.12-.56-1.4v-.56c.28-.56.56.28.84,0,0-.56-.28-.84-.56-.84-.56,0-.56-.28-.84-.56,0,0-.28-.28,0-.28,0,0,.28-.28.28,0,.28.56.56.28.56-.28s.56-1.12.56-1.96c0-.28.28-.56,0-.56s-.56-.28-.84,0c0,0-.28.28-.56,0,0-.28.28-.28.28-.56s.56-.56.28-.84c-.28-.28-.84-.28-1.12-.28s-.28.28-.56.56c0,.28-.28.28-.56,0,.56-.28.28-.84,0-1.12-.28-.28-.28-.56,0-.56.56,0,.84-.28.84-.84,0-.28.84-.56.28-.84-.28-.28-.56.28-.84.56-.28,0-.56.28-.84,0s0-.28.28-.56q.28-.28.28-.56h.28c.28-.84.84-1.4,1.68-1.68q.28,0,.28-.28c-.28-.56-.56-.56-1.12-.56-.28,0-.28.28-.28.84,0,.28,0,.56-.56.56-.28,0-.56-.56-.28-.56.28-.56,0-1.12-.56-1.4-.28,0-.28-.28-.28-.56s.28-.28.56,0c.56.28.84-.28,1.12-.56.56-1.12.56-2.24,1.96-2.52h.28c0-.56.56-.56.84-.84.56-.28.56-.84,0-1.12-.28-.28-1.12-.28-.28-1.12v-.28h.28s.28,0,.28.28c.28,0,.28.28.56,0,.28-.28-.28-.28-.28-.56-.28-.28-.28-.56,0-.56.56,0,1.12-.28,1.12-1.12,0-.56.28-.56-.28-.56s-.56-.28-.56-.56c-.28,0,0,.56-.28.56-.56,0-1.12,0-1.68.28h-.28v-.28c.28-.84,0-1.68.56-2.52h0c-.28-.28,0-.56.28-.84.28-.56-.56-.28-.56-.84v-.28c.56,0,.84-.56,1.4-.28h1.12c.56-.28.56-.56.28-.84-.28-.28-.56-.56-.28-.84,0-.28.28-.28.28-.56-.28.28-.56,0-.84.28-.28.28-.56.56-.84.56s-.28,0-.28.28c0,.56-.56.56-.56,1.12,0,.28-.28.56-.56.28-.28,0-.56-.28-.56-.56s-.28-.56-.56-1.12c-.28-.84-1.12-1.4-.56-2.23h0c.28-.28,0-.56,0-.56.28-.84.28-1.12,1.12-.56.56.28.28-.28.28-.28-.28-1.12.56-1.4,1.12-1.96.28-.28.56-.28.56.28s.56.56.84.56l.28.28h0c.28,1.4.56,0,1.12.28-.56-.56-.56-1.4,0-1.4s.84-.56,1.4-.84c.28-.28.84-.56.56-1.12-1.68-1.68-2.24-1.68-2.8-1.68-.28,0-.56,0-.84.28-.56,0-1.12.56-1.68-.28h-1.96c-.56-.56.28-.84.56-1.12.56,0,.84-.56,1.4.28.28-.56.84-1.4.84-1.96s0-.56.56-.84c.28,0,.56,0,.56-.56v-.28c-.28-.28-.56,0-.56.28-.28,0-.56.28-.56,0-.28-1.12-.56-1.4-1.68-1.4-.28-.28-.84-.56-.84-1.12.28,0,.28-.28,0-.56-.28,0-.56,0-.56.28-.28.28-.28.84-.84.56h0q0-.28-.56-.28c-.28,0-.84-.28-.84-.56q-.28-1.4-1.68-1.4c-.28,0-.56,0-.28-.28.28-.56,0-.56-.28-.84,0,0-1.96-.84-2.24-.84.28-.28.56-.56,0-.84v-1.12c0-1.4.28-1.4.56-1.4s.56-.28.56,0c.28,0,0,.28,0,.56,0,0-.28.28,0,.28s.28,0,.28-.28c.28-.56.56-.84,1.12-1.4.28-.28.56-.28.28-.84-.28-.28.28-.84.56-.84.84,0,1.68,0,2.52.56.56.28.84,0,1.4.56q.28,0,.28-.28c0-.28,0-.56-.28-.56-1.12-.28-2.24-.56-3.36-.84-1.12-.28-1.68-.56-1.96-1.68,0-.28-.28,0-.28,0-.28-.56-.28-1.12.28-1.68.28-.28.28-.84.28-1.12-.56-.84-.84-1.68-.84-2.52v-.56q.28-1.4-1.12-1.4h0c-.28-.28,0-.84-.28-1.12v-.56c.28-.28.56-.84,1.12-.56.28.84.56.28.56,0,.28,0,.28-.28.56,0,.28,0,0,.28,0,.28-.28.28,0,.28.28.28s.56,0,.56.28c0,.56.56.28.84.28s.56,0,.56-.28v-.28c-.28-.28-.56.28-.56.28h-.28c-.28-.28.28-.84-.28-1.12-.56-.56-1.12-.56-1.96-.56h-.56c0-.28.56-.28.56-.84-.56,0-.56.56-1.12.56,0-.28-.28-.28-.56-.28s-.56-.28-1.12-.28c-.56-.28-.56-.56-.84-.84-.84-1.12-2.24-.56-3.35-1.12h0c-.28.56-.56.56-.84.56h-.28c-.28-.28-.28-.56-.28-.84.56,0,.56-1.12,1.4-.84q.28,0,.56.28c0,.56.28.56.84.28.56-.28.28-.56,0-.84,0-.28,0-.56.28-.28.28,0,.28.28.56,0,1.12-.56,1.12-.28,1.68.56,0,.28.28.56.56.28.28,0,.56,0,.56-.28s-.28-1.12-.56-1.12c-.84,0-1.12-.28-1.4-.84q-.28-.28,0-.56.28,0,.56.28c.56.28,1.12.56,1.12-.28l.28-.28c.84-.28.56-.84.28-1.12,0-.28-.56-.28-.84,0q-.28.28-.28.56c.56,1.12-.28.56-.56.56,0-.56.56-.56.28-.84-.28-.28-.56.28-.84.28h0c-.56.28-.84.84-1.4.84,0,0-.28,0-.28.28,0,.84-.56.84-1.12.84h-.56l-.28-.28h0v-.28h0c.28-.56.84,0,1.4-.28-.56-.28-.84-.56-1.4-.28h-.56s0-.28-.28-.56q.28-.28.28-.56c.28-.56.56-1.12,1.12-1.68h0c.84-.28,1.68-.56,2.23-1.4h.28c.56.28.84.56,1.4.28h.56c0,.28.28.56,0,.84-.28.28,0,.28.28.56.56.28,1.12.84,1.68,1.12.56,0,.56.56.28.84q-.28.56.28.56c.28,0,.84,0,.84.28.28.84.56.84,1.12.56h0c0,.28.28.56-.28.56-.28,0-.56-.28-.56.28,0,.28.28.28.56.28.84.28,1.68,0,2.52,0,.28,0,.56.28.56.28q.28,0,.56-.28v-.56c0-.28-.28-.28-.56,0h-.56c-.56-.84-1.12-.84-1.96-1.12-.28-.28-.56-.56-.28-.84q.56-.56,0-1.12h.56c.28,0,.56,0,.28-.28-.28-.28-.56-.56-1.12,0-.28,0-.28.28-.56,0q0-.28.28-.28c.28,0,.56,0,.28-.28,0-.28-.28,0-.28,0-.56,0-1.4,0-1.96-.56-.56-.28-.84-1.12-1.68-.56,0,0-.56,0-.56-.28s.28,0,.56-.28c.56-.28.84-.56,1.4-.84.84-.28,1.12-.56,1.4.56q.28.56.84.84c.28,0,.56,0,.84.28q.56.84,1.12,0c.28-.28,0-.28,0-.56s-.28-.56,0-.56c.56,0,.28-.56.56-.84h-.56c-.56.28-.84,0-1.4-.56-.28-.28-.56-.56-.56-1.12-.28-.28-.84-.56-1.12-.56-.56.28-.56,0-.56-.28-.28-1.12-1.4-1.4-2.24-1.12-.28-.28-.56-.28-.84-.28h-1.4c-.56-.56-1.4-.84-.84-1.96.28-.28.56-.28.84-.28h1.12c.28,0,.56-.28.56.28,0,.28.28.28.56.28.56,0,.56-.28,1.12-.28.84,0,1.4.28,2.24.28.28.56.28-.28.56,0,.28,0-.28.56.28.56.28,0,.28-.28.28-.56.28-.56.56-.56.84-.28.28,0,.56.56.84.28.84-.28,1.4,0,2.24,0h.28q0-.28-.28-.28c-.56,0-.84-.28-1.4-.56.56,0,.84,0,1.12-.28l.28-.28h-1.4q-.28,0-.28-.28c0-.28.28,0,.28-.28.28-.28.56-.56.56-1.12s-.56-.56-.84-.56-.56,0-.84-.28q-.28-.28-.56,0c-.28.56-.84.56-1.12,0-.56-.56-1.12-.56-1.68-.28-.28,0-.56,0-.84-.28-.28-.28-.28-.56-.28-.84.28,0,.84-.28.56-.56-.28-.56,0-.84,0-1.12.28-.28.28-.84.56-.28h.28c.28-.28.84-.56,1.12-1.12h0s.28,0,.28-.28c.56-1.12,0-2.24.56-3.35,0,0,0-.28-.28-.28-.56-.28-.56-.84-.56-1.4,0-1.12.28-1.12,1.4-.84.28,0,.56,0,.56-.28h.56q0,.28.28.56h0l.28.28c.56.84.84,1.12,1.68.28.28-.28.28,0,.28,0,.56.28.84,0,1.12-.56,0-.28.28,0,.28-.28.28,0,.28.28.56.28.28-.28-.28-.56-.28-.56h0c.28,0,.28.28.28,0,.28-.56-.56-.28-.56-.84.56,0,.84-.28.56-.84h0c.56,0,.84,0,.56-.56v-1.4c.28-.56.56-1.4.84-1.96.56-.84.28-1.96-.28-2.8,0,.56,0-.28,0-1.12-.28-.84,0-1.68-.84-2.52-.84-.84-.56-2.24-1.4-3.36.56-.56-.28-.84-.28-1.12-.28-1.12-.56-2.24-.56-3.08,0-.56,0-.84-.56-1.12-.28,0-.28-.28-.28-.56,0-.56,0-1.12-.28-1.4,0-.28-.28-.56,0-.84,0-.56-.28-1.12-.84-1.12-.28,0-.56-.28-.56-.56-.56-.84-.56-1.68-.84-2.52-.28-1.12-.84-1.68-1.96-1.96-1.96-.28-3.64-.84-5.59-1.12-.84,0-1.4-.56-1.68-1.4,0-.56-.28-1.12-.28-1.68-.28-.56-.28-1.12-1.12-.56h-.56c-.28-.28-.28-.56-.28-.84s0-.56-.56-.56c-.84.28-.84,0-.56-.84,0-.28.28-.56.28-.84-.28,0-.56,0-.56-.28-.28-.56.28-.28.56-.28.84-.56.84-.84-.28-1.4-.28,0-.56-.28-.84-.56,0,0-.56-.28-.28-.56.28-.28.56-.28.84-.56q.28,0,.28.28c0,.28.56.28.56,0,0-.56.56-.56.84-.84.28.28.84.56,1.12.84.56.84,1.12,1.12,1.96.84.56,0,.56-.56.56-.84-.28-.56-.28-1.12-.56-1.68,0,0-.28-.28,0-.28.56-.28.56-1.12.84-1.4,0-.28.28-.56,0-.56-.28-.28-.56.28-.56.56v.28c0,.56-.28.28-.56.28-.84-.28-.28-.84-.56-1.12v-.28c0-.28,0-.56.28-.84.28.28.28.84.84.84.56-.28,0-.84,0-1.12v-.28c-.56-.84-.84-1.96-.84-2.8,0-.56-.28-1.12.56-1.4.28,0,.28-.28,0-.56-.28-.56-.84,0-1.4-.28-.56-.56-.84-.84-.56-1.68.28-.56,0-1.4-.56-1.68-.56-.28-.84-.84-1.12-1.4-.28-.56-.56-.84-.28-1.4.28-.28,0-.56,0-.56-.56.56-.84,0-1.4-.28h-.28c-.28.56-.56,0-.56-.28-.28-.28-.28-.56-.28-1.12-.28,0-.56-.28-.84,0-.56,0-1.4,0-1.96.28-.56.28-1.4,0-1.68,0-.84-.28-1.96-.28-2.8-.28-.84-.28-1.68,0-2.52,0s-1.4-.56-2.24-.56c-.56,0-1.4-.28-2.24-.28-1.12-.28-2.52-.28-3.64-.28-.84,0-1.68-.28-2.52.28-.28.28-.56,0-.56-.28-.28-.56-.56-.56-.84-.28-.28.28-.84.28-1.12-.28-.28-.28-.56-.28-.56-.28h-1.4c-.84,0-1.4-.28-2.24-.28h-.84c-.28-.28-.84-.28-1.12,0-.28.28-.56.28-.84,0-.56-.28-1.12-.84-1.68,0h-.28c-.84-.56-1.96,0-2.8-.28-.84-.28-2.24,0-3.35-.56-.84-.56-1.68,0-2.52-.28-.28,0-.56,0-.84-.28-.28-.28-.56-.28-.84-.28h-1.96c-.28,0-.84,0-1.12.28-.28.28-.56.28-.56,0,0-.56-.28-.56-.56-.56-.56,0-1.12,0-1.68.56,0,0-.28.28-.56,0-.28-.56-.56-.28-.84,0-.28,0-.28.28-.56,0-.28-.28-.56-.28-.84,0-.28.28-.56.28-.84.28-1.4,0-2.52-.84-3.92-.84-.56,0-1.4-.28-1.96.28-.28.28-.84.28-1.12,0-.56-.28-.84,0-1.12,0-.84-.56-1.4,0-1.96.56-.56.28-.84.28-1.12-.28q0-.28-.28-.28c-.56,0-.84,0-1.4.56-.56.56-1.4.56-1.96,0-.28-.28-.56-.28-.84,0-.28,0-.28.28-.56.28-.56,0-1.4.28-1.96,0-.56-.28-1.12-.28-1.96-.28-.56,0-.56.56-1.12.56-.84,0-1.96.28-2.8-.28h-.56c-1.12,1.12-2.24,1.12-3.08,1.12-.56,0-1.12,0-1.68-.56-.28-.28-1.12.28-1.68,0-1.12-.28-2.52,0-3.64,0-.56,0-1.4.56-1.96.28-.84-.56-1.68-.28-1.96.56q0,.28-.28.28c-.28,0-.28-.28-.56-.28-.28-.56-.56-.84-1.12-.28h-.28c-1.12-.28-2.24-.84-3.64-.28-.56.28-1.12.28-1.68.28-1.4.28-2.8,0-4.19.28-.56,0-1.4,0-1.96.28h0s0-.28-.28,0h-1.12c-.84.28-1.68.28-2.24.28-1.68,0-3.63,0-5.31.28-.56,0-.84,0-1.12.56l-.28.28c-.56-.56-.84,0-1.12,0s-.28.28-.56.28c-.56.28-1.4.56-2.24.56-.28,0-.56,0-.84.56-.28.28-.56.56-1.12.56s-1.12-.28-1.68-.28c-.84.28-1.68.56-2.8.28-.28,0-.28.28-.56.28s-.28-.28-.56,0c-.84.56-1.68.56-2.52.28-.28,0-.56,0-.56.28-.28.56-.84.28-1.4.28h-.84c-.84.56-1.68.28-2.52.56h-.28c-.28-.56-.84-.28-1.12-.28h-1.96c-1.12,0-2.24-.28-3.35,0-.84.28-1.68.28-2.24,1.12-.28.28,0,1.12-.56,1.4,0,1.12-1.12,1.96-1.4,3.36,0,.28-.28.84-.84.84-.28,0-.28.28-.28.56,0,1.12-.28,2.24-.28,3.36,0,.84.28,1.68,0,2.8-.56,1.4-.56,2.8-.56,4.19,0,1.96.56,3.63.56,5.59,0,.84.28,1.96.84,2.8.84,1.4,1.4,3.08,2.8,4.19.28,0,.56.56,0,.56v.28c0,.56-.28,1.4,0,1.68.84.84.56,1.68.56,2.52q0,.56.56.56c0,.28-.56.28-.56.56.84.28,0,.56,0,1.12.56.28,1.12-.28,1.68-.28.56.28.56.56,0,.84-.28,0-.28.28-.28.56,0,.56,0,1.12-.84,1.12-.28,0-.28.28-.28.28-.56.56-.56,1.12-1.12,1.4-.84.56-1.4,1.4-1.12,2.24v.28c-.84,0-.56.56-.84,1.12v.28c-1.12,0-.56.84-.84,1.4-1.12-.28-1.4.28-1.4,1.12,0,.56.28.84.56.56.28,0,.56-.28.84-.28.28.28.56.56.84.84.56.84.28,1.12-.28,1.4h-.28c-.56,0-.28-.56-.28-.84,0-.56-.28-.84-.84-.28-.28.28-.56.56-.84.56s-.56,0-.56.28.28.28.56.56c.56.28,1.4,0,1.96.56h.28q.28.28.56.56h0c0,.84.84.84,1.4.84.84,0,1.12.28.84,1.12,0,.28,0,.56.28.28,0,.56.56,1.4,0,1.95v.28c0,.56-.28.84,0,1.4,0-.56.28-.84.28-1.4.56-.28.84-.28,1.12.28.28.84,0,1.68,0,2.8,0,.28,0,.56.28.84h0c0,.28.28.28.28.56-.56,0-.28.56-.28,1.12-.28.28,0,.56-.28.84-.56.56,0,.84,0,1.12.28.28.56.56.84.56.28.56,0,1.12.28,1.4,0,.56.28,1.12.84,1.12.28,0,.28.28.28.28,0,.56.28,1.12.56,1.4v.56c-1.12,1.12,0,1.96,0,3.08,0,.56.84,0,1.12.28h.28q-.56.56-1.12.28h-.28c-.56.56,0,.84.28,1.12q0,.28.28.28c.28-.28.56-.56.84,0,.28,1.12.84,1.96,2.24,2.24.28,0,.84,0,1.4.28.28,0,.84,0,.84-.56q0-.28.28-.56h.28c.56,0,.84.28,1.12.84,0,.28.28.28.56,0,.28-.28.56-.56.28-.84-.28-.84.56-.56.84-.84.28-.56.28.28.56.28.28.28.28.56,0,.84-.28.84-.56,1.12-1.4.84-.28,0-.56,0-.84.28,0,.28.28.56.56.56l.28.28c-.28.28,0,.56-.28,1.12.84-.56,1.12-.28.84.56v.56h0c-.28.56-.56,1.12-.84,1.68-.28,1.4-.84,2.24-1.4,3.35-.28.56-.56.84-.84,1.12-.28,1.12-.84,2.24-1.4,3.07-.56.28-.56,1.12-.84,1.4,0,.28,0,.84-.28,1.12-.28.56,0,1.12,0,1.68,0,.28-.28.28-.28.56.28,1.12,0,2.24.56,3.08,0,.56.28,1.12.56,1.68.56,1.12.84,2.24,1.12,3.36h0c0,.28,0,.56.28.84.28.28,0,.84.56,1.12,0,.28,0,.56.28.84.28.28.28.84.28,1.12-.28.28-.56.56-.56,1.4,0,.56-.84.56-1.12,1.4-.56.56-.56,1.4-1.12,1.96-.28.28-.56.56-.56,1.12h-1.68c-.28-.28-1.12-.28-.84.56,0,.56-.28.56-.56.56-.56-.28-1.12,0-1.4.56-.28.28-.84.56-.84.84-.28.56,0,1.4-.28,1.96-.28.56-.28,1.12-.56,1.68h-.28q-.28,0-.28.28c0,.28,0,.56-.28.84h0c-.28.28-.28.84-.28,1.12-.28.56,0,1.12-.28,1.68-.28.28-.56.56,0,.84v2.52c-.28.84-.56,1.68,0,2.52v.56c-.56,1.96-.84,3.92-.56,5.87.28,1.4.28,3.08.28,4.47,0,1.12,0,2.24,1.12,2.8.28.28.56.56.28.84,0,.56.28,1.12.56,1.4-.28.56,0,.84,0,1.12,0,.56.56.84.28,1.4-.28.56,0,.56,0,.84.28.56,1.12,0,1.4.56.28.56,1.4-.28,1.4,1.12,0,0,0,.28,0,0,.56-.28,1.12.28,1.4.28.28.84.84,1.4,1.4,1.12.28,0,.56-.28.84-.28.84.28.56.84.56,1.4s-.28,1.12.56.56c0,0,.28,0,.28.28-.28.28,0,.56.28.56q.28.28.28.56c0,.28-.28.56-.28.84-.28,0-.56-.28-1.12,0-.56.28-1.4.56-1.96.84l-.28.28c-.28,0-.56.28-.84.56v.28c.28,0,.56-.28.84-.28v-.28c.84-.28,1.4-.28,2.24,0,.56.28,1.4.28,1.68-.56.56-.56,1.12-.56,1.4-.28,0,0,.28,0,.28.28h0c.28.28.56.28.84,0,0-.28.28-.28.56-.28,1.68.28,2.8.28,4.19-.28h.28c.84.56,1.68.84,1.96,1.96,0,.56.28,1.12-.84,1.12-.28,0-.28.28-.28.56s0,.56.28.56c.84-.28,1.4,0,2.24.28,0,0,.28,0,.28-.28.28,0,.56.28.56.28,0,.28.28.28.56.28.56,0,0,1.12.56.84.56-.28.56,0,.84.28.28.28.28.56.56.56s0,.28.28.28c0,.28-.28.56,0,.56s.56-.28.56-.28c0-.28.28-.56.56,0,.28.28.84.56,1.4.56.28,0,.56,0,.56-.28.28-.28-.28-.28-.28-.28,0-.28-.28-.84.28-.84.28,0,.56-.56,1.12,0,0,0,.28,0,.28-.28,0-.56.28-.56.84-.56s.84,0,1.4-.28c1.12-.28,1.12,0,1.12.84,0,.28.28.56.28.28.28-.28.84-.28,1.4-.84.28-.28.84-.56,1.4-.28,0,.28.28,0,.56,0,.28-.28.84-.56,1.4-.28.56.56.84.56,1.4,0,.56-.28.84,0,1.12.28.28.28.56.28.56.56-.28.84.28.84.56.84s.84,0,1.12.28c.28.28,1.12,0,1.4-.28,0-.28.28-.28.56-.28.28.28.56,0,.84,0,.28-.28.84-.56.56.28q0,.28.28.28t.28-.28v-.28c.28,0,.28.56.56.28.28-.28,0-.56,0-.56.28-.28.56.28.84-.28,0-.56-.28-.28-.56-.28s-.56,0-.84-.28c-.56-.28-.84-.28-1.4-.28s-1.12.28-1.68-.28c.56-1.12,1.68-1.4,2.79-1.68.84,0,1.96-.28,2.8-.28.28,0,.56,0,.56-.28.28-.28.56-.28.84-.28.56,0,1.12.28,1.4-.28.84-.56,1.96-.56,2.8-.84h.56c.56.28,1.12.28,1.68.28.56-.28,1.68,0,1.4-1.4,0-.28.28-.28.28,0,0,0,.28,0,.28.28s0,.56.28.56.56,0,.84-.28c0-.28.28-.28.56-.28.56.28,1.12.28,1.68.56.28.28.28,0,.56,0s.56-.28.84-.28h.56c1.4.56,2.52,0,3.64-.28.56,0,.84.28.84.84s.56.56.84.56c0,.28-.28.28-.56.56Z"/>
  <path class="cls-4" d="M166.1,131.5c-.28.28-.56.56-.84,1.12v.28c.28,0,.56,0,1.12-.28.28,0,.56-.28.28-.56,0-.84-.28-.84-.56-.56Z"/>
  <path class="cls-4" d="M10.91,114.44h.28c.56,0,0-.56.28-.84,0,.28-.56.28-.56.84Z"/>
  <path class="cls-4" d="M159.39,101.3c0,.28.56.56.84.28.56-.56,1.12-.28,1.4.56,0-.56,0-.84.28-1.12-.56,0-.84-.56-1.4-.56-.28,0-.56,0-.28-.56q0-.28-.28-.28h-.56c.28.84,0,1.12,0,1.68Z"/>
  <path class="cls-4" d="M163.31,89.84q.56,0,.84-.56c-.28.28-.56.28-.84.56h0Z"/>
  <path class="cls-4" d="M14.26,86.2c.28,0,.56,0,.56-.28-.28,0-.28-.28-.56-.28s-.56.28-.56.56h.56Z"/>
  <path class="cls-4" d="M14.54,116.12c0-.28-.28-.56-.56-.56s-.56.28-.28.56c.28-.28.56-.28.84,0Z"/>
  <path class="cls-4" d="M16.78,87.04h0c-.28-.56-1.4-.56-1.68,0,.56-.28.84,0,1.12.28,0,0,.28,0,.56-.28Z"/>
  <path class="cls-5" d="M48.94,26.91c2.52-2.24,4.75-5.31,7.83-7.27-1.96-2.8-2.52-6.43-6.15-7.55h-1.68c-2.24.56-3.91,1.68-3.91,4.47-.28.28-.28,1.4,0,1.4.56,3.92,1.68,6.99,3.91,8.95Z"/>
  <path class="cls-5" d="M53.41,31.39c3.08,2.52,7.55,3.64,12.58,4.2,1.68-2.24,2.52-5.04,2.8-8.39-2.8-1.4-6.99-1.12-8.67-3.36-3.08,1.68-5.31,4.19-6.71,7.55Z"/>
  <path class="cls-5" d="M110.46,40.9c-.28-1.96-1.96-3.36-3.92-4.2,0,0,0-.28,0,0-2.24.56-6.71,3.08-6.71,5.59,0,2.24,3.35,5.31,5.31,5.31,2.8-.28,5.59-3.64,5.31-6.71ZM103.19,42.02c0-1.68.84-2.52,2.24-2.8,1.68-.28,2.52.84,2.79,1.4,1.96,4.19-4.75,5.59-5.03,1.4Z"/>
  <path class="cls-5" d="M105.43,42.3c.28,0,.28.28.56.28.56-.28.56-.56.56-1.12-.56-.28-1.4,0-1.12.84Z"/>
  <path class="cls-5" d="M88.09,42.57c0,.28.28.28.28.56h.84c.84-.84-1.12-1.96-1.12-.56Z"/>
  <path class="cls-5" d="M98.71,59.07c4.47-.56,9.51-5.31,5.31-8.39-.84-.84-1.68-1.68-2.52-2.52-1.4-1.4-3.36-2.52-5.31-.84-.84.56-1.96,2.24-2.8,3.36-.84,1.12-2.24,2.8-2.24,3.91-.56,2.8,4.19,5.03,7.55,4.47Z"/>
  <path class="cls-5" d="M128.91,59.07c-3.08-3.92-6.99-6.99-11.74-9.51-2.23,1.4-4.47,4.19-5.87,6.71,4.19,2.24,7.55,5.59,10.9,8.39,2.24-1.96,5.31-2.79,6.71-5.59Z"/>
  <path class="cls-5" d="M126.96,71.38c2.8,3.63,4.75,7.83,5.87,12.86,2.24-1.96,5.87-2.52,7.83-4.47-1.4-5.87-3.63-10.91-7.55-14.54-1.68,2.52-4.75,3.35-6.15,6.15Z"/>
  <path class="cls-5" d="M142.06,88.99c-3.63-.56-6.15,1.12-8.67,2.24v.56c-.28.28,0,1.4,0,1.96.28,1.96-.28,5.59-.56,8.11,2.24,1.68,4.75,3.36,8.11,4.2,1.12-2.51,1.4-5.59,1.96-8.67v-5.59c-.56-.84-.56-1.96-.84-2.8Z"/>
  <path class="cls-5" d="M123.04,118.92c.56.84,1.12,1.96,1.96,2.8.84.84,1.68,1.96,2.52,2.8l.28.28c.28,0,1.12-.84,1.4-1.12,2.51-2.8,5.03-6.15,6.71-9.79-2.52-1.68-5.31-3.08-7.55-5.03-1.4,3.63-3.08,6.99-5.31,10.07Z"/>
  <path class="cls-5" d="M113.53,127.59c-.56.28-1.12.84-1.4,1.4-1.4,1.12-2.51,2.24-4.19,3.36-.28,2.8-1.4,5.59-1.12,8.11,5.03-2.52,10.35-5.03,14.26-8.67-.84-2.8-2.8-4.47-3.92-6.99-1.4.56-2.52,1.68-3.63,2.8Z"/>
  <path class="cls-5" d="M93.12,45.37c.56-1.4,1.96-1.96,1.96-3.64,0-1.4-1.96-2.52-2.8-3.08-.84-.56-2.8-1.96-4.19-1.96-1.68.28-3.64,2.8-3.92,4.47-.56,3.92,4.47,8.11,7.27,5.31.84,0,1.12-.56,1.68-1.12ZM88.65,45.37c-2.8,0-3.63-4.47-.56-5.31,4.19-1.12,3.92,5.31.56,5.31Z"/>
  <path class="cls-5" d="M111.86,148.56c0-.56,1.12-.84,1.12-1.96,0-.84-1.12-1.4-2.51-1.68-1.12,0-1.96.56-2.8.56-1.96,0-4.19-1.68-6.43-1.4-1.96,0-2.8,1.12-4.47,1.4,3.35-7.55,7.27-15.66,10.07-24.89,3.35-10.9,5.87-29.36-8.67-29.92-1.96-27.96-25.45-35.79-23.21-67.11.28-.28,0-1.12,0-1.4-.28-.28,0-.28,0-.56,5.59,1.96,6.71,8.11,7.83,14.54,3.63-1.96,8.39-4.19,14.82-3.91h1.4c3.08.28,6.99,0,9.51,1.4,2.24,1.4,3.63,6.15,3.35,9.79,2.8-1.12,3.91-4.19,4.75-6.99.84-2.8,1.68-6.43,1.96-9.79.28-.28,0-1.4,0-1.96,0-1.12,0-3.63-.84-5.03-1.4.56-2.52,2.24-3.92,3.36-.84.84-1.4,1.68-2.52,2.52-1.4.84-1.96,2.52-3.64,3.08-2.52-1.12-5.31-1.68-8.39-1.96-.28-.28-1.4,0-1.96,0-1.68,0-3.36.56-5.59,1.4-1.68.56-4.19,1.96-5.32,1.68-.84-.28-1.12-1.4-1.96-1.96-.84-.84-1.68-1.4-2.23-2.52-2.52-1.96-4.75-3.92-7.83-5.31-1.12,4.2-1.68,8.67-2.52,13.14-.28,1.4-.56,3.08-1.12,4.19-.84,1.4-4.75,3.36-6.43,4.47-6.71,4.48-13.14,9.23-18.74,14.54-7.83,7.55-12.86,15.66-14.26,29.92v7.55h0c1.12,17.62,6.15,30.76,15.1,40.55.28.56.84.84,1.4,1.4,0,.28.28.28.28.28.56.56.84.84,1.4,1.4,9.79,9.23,24.33,13.98,41.94,14.82,1.68,0,3.36-.28,5.31,0,3.35.28,5.03,2.8,7.55,4.75h.56c4.19-1.12.56-5.31-3.08-3.36-1.12-.84-1.12-2.51-3.08-2.79-.28-.28-1.4,0-1.68-.28.56,0,1.68-.28,2.24,0,1.4,0,2.52.56,3.91,1.12,1.12.56,2.52.84,3.36,1.4.84.56,1.4,2.24,2.24,2.24,1.68.28,4.19-3.64.84-4.2-1.12-.28-1.96.56-2.8.56-1.4-.28-2.52-2.8-4.47-3.08h-1.12,1.12c2.52.28,5.87,1.12,8.39,2.24.84.56,1.4,1.96,2.51,2.24,2.24-.28,2.52-5.31-1.4-4.47ZM116.89,22.44c1.4,5.87,0,13.7-3.64,16.22,0-1.96-1.96-3.64-2.23-5.59-.56-3.08,3.35-9.79,5.87-10.63ZM90.88,142.41c-.56.56-.84.84-1.4,1.4-1.4,1.12-2.79,2.8-4.75,3.08-3.63.56-8.11-.28-11.74-1.12-25.17-5.04-36.91-25.73-39.71-52.01,0-.56.28-1.4,0-1.4-.28-15.38,5.59-25.73,13.14-34.12.84-.84,1.96-1.68,2.8-2.8,6.43-5.87,13.98-10.63,23.77-13.42,5.31,12.58,15.38,22.09,19.86,35.51,1.4,3.92,1.96,8.39,4.19,12.59-13.14-3.08-27.4,1.96-27.4,16.5,0,.56-.28,1.68,0,1.96.28,3.63.84,6.99,2.8,9.23.28-1.12-.28-4.19,0-5.03v-2.8c.28-6.15.84-12.59,6.15-16.22,5.03-3.35,15.1-4.75,21.81-1.96,4.19,1.68,7.27,6.71,7.55,12.86v3.35c-2.52,15.1-9.23,25.17-17.06,34.4ZM104.31,146.32l-1.12-.28c.28-.28,1.12,0,1.12.28,2.8.28,4.47,1.68,6.43,2.51-2.52.56-3.92-2.23-6.43-2.51Z"/>
  <path class="cls-5" d="M217.91,57.97l-.17-27.88h7.92v40.22h-7.31l-18.89-27.82.17,27.82h-7.92V30.09h7.37l18.83,27.88Z"/>
  <path class="cls-5" d="M235.69,30.09h22.99v7.12h-14.73v9.13h14.46v7.12h-14.46v9.73h14.73v7.12h-22.99V30.09Z"/>
  <path class="cls-5" d="M307.19,56.83c-2.49,8.31-10.47,14.24-20.05,14.24-12.52,0-21.49-9.73-21.49-20.92s8.47-20.81,21.44-20.81c11.8.05,18.5,8.59,20.11,14.46h-8.7c-1.27-2.77-4.93-7.28-11.47-7.34-7.98,0-13.13,6.58-13.13,13.7s5.37,13.8,13.18,13.8c7.31,0,10.63-5.65,11.41-7.12h8.7Z"/>
  <path class="cls-5" d="M316.04,30.09h8.25v18.64l13.57-18.64h8.7l-14.84,20.05,16.34,20.16h-10.08l-13.68-18.04v18.04h-8.25V30.09Z"/>
  <path class="cls-5" d="M354.03,30.09h22.99v7.12h-14.73v9.13h14.46v7.12h-14.46v9.73h14.73v7.12h-22.99V30.09Z"/>
  <path class="cls-5" d="M385.6,30.09h12.41c6.37,0,10.03.98,12.24,2.55,3.38,2.39,5.21,6.47,5.21,10.92,0,2.93-.83,5.54-2.22,7.5-1.77,2.55-4.1,3.7-6.76,4.35l9.14,14.89h-8.64l-11.02-18.69h1.61c2.71,0,5.65-.16,7.37-1.47,1.61-1.31,2.6-3.42,2.6-5.87s-1.22-4.67-3.05-5.82c-1.5-.92-3.49-1.25-5.82-1.25h-4.82v33.1h-8.25V30.09Z"/>
  <path class="cls-5" d="M244.99,118.78c-3.82,6.37-12.84,13.05-24.68,13.05-16.2,0-29.34-12.07-29.34-28.72s13.14-28.72,29.34-28.72c12.07.08,20.63,7.05,24.76,13.35h-2.67c-2.14-2.92-9.55-11.25-22.08-11.32-14.98,0-27.05,11.32-27.05,26.7s12.07,26.69,27.05,26.69c13.22,0,20.48-8.85,22.08-11.02h2.6Z"/>
  <path class="cls-5" d="M259.05,75.37v35.99c0,5.4,0,8.85,3.51,13.35,2.44,3.15,7.11,5.1,11.61,5.1s8.94-1.95,11.38-5.1c3.52-4.5,3.52-7.95,3.52-13.35v-35.99h2.29v35.99c.08,5.02-.15,12.52-6.8,17.1-2.9,2.1-6.65,3.38-10.54,3.38s-7.56-1.27-10.47-3.38c-6.65-4.57-6.88-12.07-6.8-17.1v-35.99h2.29Z"/>
  <path class="cls-5" d="M315.44,75.37c6.72,0,10.39.6,14.14,3.3,3.36,2.4,5.73,7.42,5.73,12.45s-2.37,10.05-5.73,12.45c-3.74,2.7-7.56,3.3-14.14,3.3h-10.85v24h-2.29v-55.49h13.14ZM304.59,104.84h10.93c6.34,0,9.63-.75,12.84-3.07,2.75-1.95,4.66-6.37,4.66-10.57s-1.91-8.77-4.66-10.72c-3.21-2.32-6.42-3.07-12.84-3.07h-10.93v27.45Z"/>
  <path class="cls-3" d="M262.41,142.4v1.04h-2.29v-1.04h2.29Z"/>
  <path class="cls-3" d="M391.37,145.87h-.91l.53-1.83h1.13l-.75,1.83Z"/>
  <path class="cls-3" d="M196.98,309.58h1.23v6h-1.23v-6Z"/>
  <path class="cls-1" d="M341.28,128.74c6.77-6.79,13.53-13.58,20.3-20.37,4.79-4.78,11.02-10,11.4-17.24.08-8.58-6.16-14.55-14.29-14.55-7.3,0-13.99,5.15-14.22,15.82h-2.28c.15-6.34,2.43-10.82,5.63-13.66,3.19-2.91,7.37-4.18,11.18-4.18,9.35,0,16.42,7.16,16.27,16.94-.38,5.52-3.5,9.4-8.29,14.63-7.53,7.54-15.05,15.07-22.66,22.61h30.94v2.01h-33.98v-2.01Z"/>
  <path class="cls-1" d="M379.07,92.77c0-15.97,13.76-18.21,17.87-18.21,9.96,0,18.32,6.94,18.32,17.54v22.09c0,14.18-13,17.54-17.94,17.54-6.54,0-18.25-4.03-18.25-17.54v-21.42ZM381.35,114.19c0,10,7.75,15.52,15.81,15.52,5.55,0,15.81-3.51,15.81-15.52v-22.09c0-7.31-4.94-15.52-16.04-15.52-8.13,0-15.59,5.45-15.59,15.97v21.64Z"/>
  <text class="cls-6" transform="translate(391.29 120.68)"><tspan x="0" y="0">6</tspan></text>
  <text/>
  <text class="cls-6" transform="translate(391.29 100.66)"><tspan x="0" y="0">2</tspan></text>
</svg>